<svg width="24" height="24" viewBox="0 0 24 24" fill="none" xmlns="http://www.w3.org/2000/svg">
<path d="M1.04 17.5199C1.10667 17.4133 1.21333 17.4066 1.36 17.4999C4.66088 19.425 8.41886 20.4267 12.24 20.3999C14.8879 20.394 17.5119 19.8991 19.98 18.9399C20.0467 18.9133 20.1433 18.8733 20.27 18.8199C20.3967 18.7666 20.4867 18.7266 20.54 18.6999C20.619 18.6568 20.7114 18.6452 20.7986 18.6675C20.8858 18.6898 20.9613 18.7442 21.01 18.8199C21.1233 18.9799 21.0867 19.1266 20.9 19.2599C20.66 19.4333 20.3533 19.6333 19.98 19.8599C18.7794 20.5621 17.4871 21.0938 16.14 21.4399C14.79 21.8045 13.3984 21.9927 12 21.9999C9.9822 22.0119 7.98034 21.6421 6.1 20.9099C4.26844 20.1953 2.58127 19.1552 1.12 17.8399C1.08632 17.8177 1.05806 17.7882 1.03729 17.7536C1.01652 17.7189 1.00378 17.6801 1 17.6399C1 17.5967 1.01404 17.5546 1.04 17.5199ZM7.06 11.8199C7.03626 10.9818 7.27391 10.157 7.74 9.45993C8.20455 8.79779 8.85042 8.28387 9.6 7.97993C10.4522 7.6389 11.3472 7.41681 12.26 7.31993C12.62 7.27993 13.2067 7.2266 14.02 7.15993V6.81993C14.0706 6.23226 13.9744 5.64122 13.74 5.09993C13.5886 4.8965 13.3882 4.73477 13.1573 4.62984C12.9265 4.52492 12.6728 4.48022 12.42 4.49993H12.26C11.8481 4.53015 11.453 4.6757 11.12 4.91993C10.7968 5.1651 10.5759 5.52139 10.5 5.91993C10.4917 6.02946 10.4484 6.13339 10.3763 6.21627C10.3042 6.29915 10.2073 6.35655 10.1 6.37993L7.8 6.09993C7.57333 6.0466 7.46 5.9266 7.46 5.73993C7.46112 5.69264 7.46784 5.64565 7.48 5.59993C7.55722 5.06725 7.74586 4.55682 8.03361 4.10193C8.32136 3.64705 8.70176 3.25792 9.15 2.95993C10.0841 2.37175 11.1569 2.04059 12.26 1.99993H12.76C14.0541 1.9217 15.3288 2.3442 16.32 3.17993C16.4534 3.31433 16.577 3.45802 16.69 3.60993C16.7883 3.74094 16.8785 3.87787 16.96 4.01993C17.0437 4.18414 17.1042 4.35913 17.14 4.53993C17.1933 4.7666 17.2333 4.92327 17.26 5.00993C17.2975 5.1943 17.3176 5.3818 17.32 5.56993C17.3333 5.8566 17.34 6.0266 17.34 6.07993V10.9199C17.3368 11.2427 17.3875 11.5638 17.49 11.8699C17.5578 12.0889 17.6554 12.2975 17.78 12.4899C17.8733 12.6166 18.0267 12.8199 18.24 13.0999C18.3102 13.1927 18.3519 13.3039 18.36 13.4199C18.3577 13.476 18.342 13.5307 18.3142 13.5795C18.2863 13.6282 18.2472 13.6695 18.2 13.6999C17.0933 14.6599 16.4933 15.1799 16.4 15.2599C16.3162 15.3191 16.2179 15.354 16.1156 15.3611C16.0133 15.3681 15.9111 15.347 15.82 15.2999C15.6333 15.1399 15.47 14.9866 15.33 14.8399C15.19 14.6933 15.09 14.5866 15.03 14.5199C14.9271 14.3947 14.8303 14.2646 14.74 14.1299C14.6067 13.9366 14.5133 13.8066 14.46 13.7399C13.8818 14.4408 13.1201 14.967 12.26 15.2599C11.7123 15.4056 11.1466 15.473 10.58 15.4599C10.1164 15.4772 9.65395 15.4021 9.21961 15.239C8.78528 15.0759 8.3877 14.8281 8.05 14.5099C7.70706 14.155 7.44189 13.7325 7.27143 13.2693C7.10097 12.8061 7.02896 12.3125 7.06 11.8199ZM10.5 11.4199C10.4778 11.8696 10.616 12.3126 10.89 12.6699C11.0172 12.8236 11.1781 12.9459 11.3602 13.0274C11.5423 13.1089 11.7407 13.1474 11.94 13.1399C11.9971 13.1381 12.054 13.1314 12.11 13.1199C12.1594 13.1095 12.2096 13.1028 12.26 13.0999C12.5416 13.0239 12.8034 12.888 13.0277 12.7017C13.2521 12.5153 13.4336 12.2828 13.56 12.0199C13.7095 11.7606 13.8206 11.4811 13.89 11.1899C13.9525 10.9508 13.9926 10.7065 14.01 10.4599C14.0167 10.2733 14.02 9.9666 14.02 9.53993V9.03993C13.429 9.02179 12.838 9.07552 12.26 9.19993C11.7468 9.29264 11.2851 9.5692 10.9611 9.97783C10.6371 10.3865 10.4732 10.8992 10.5 11.4199ZM18.9 17.8599C18.9308 17.8003 18.9713 17.7462 19.02 17.6999C19.3111 17.4924 19.6359 17.3368 19.98 17.2399C20.4632 17.1099 20.9598 17.0361 21.46 17.0199C21.5869 17.0063 21.7152 17.0131 21.84 17.0399C22.44 17.0933 22.8 17.1933 22.92 17.3399C22.9803 17.4499 23.0081 17.5748 23 17.6999V17.8399C22.9765 18.4087 22.8477 18.9682 22.62 19.4899C22.3975 20.0791 22.0335 20.6046 21.56 21.0199C21.5107 21.0661 21.4473 21.0943 21.38 21.0999C21.3522 21.0989 21.325 21.0921 21.3 21.0799C21.22 21.0399 21.2 20.9666 21.24 20.8599C21.6202 20.1003 21.8703 19.2823 21.98 18.4399C21.9903 18.3273 21.9621 18.2145 21.9 18.1199C21.7667 17.9599 21.3933 17.8799 20.78 17.8799C20.5533 17.8799 20.2867 17.8933 19.98 17.9199C19.6467 17.9599 19.34 17.9999 19.06 18.0399C19.0036 18.0468 18.9466 18.0326 18.9 17.9999C18.8879 17.991 18.8793 17.9781 18.8757 17.9635C18.872 17.9489 18.8736 17.9335 18.88 17.9199C18.8834 17.899 18.8902 17.8787 18.9 17.8599Z" fill="#59168B"/>
</svg>
