<svg width="24" height="24" viewBox="0 0 24 24" fill="none" xmlns="http://www.w3.org/2000/svg">
<path d="M18.97 3H5C3.9 3 3 3.9 3 5V19C3 20.1 3.9 21 5 21H18.97C20.07 21 20.97 20.1 20.97 19V5C20.97 4.46957 20.7593 3.96086 20.3842 3.58579C20.0091 3.21071 19.5004 3 18.97 3ZM17.38 16.98C17.35 16.99 17.31 17 17.28 17H15.02C14.9221 17.0017 14.826 16.974 14.744 16.9205C14.662 16.867 14.5979 16.7902 14.56 16.7L12.1 10.96C12.08 10.9 12.02 10.87 11.97 10.89C11.954 10.896 11.9395 10.9054 11.9274 10.9174C11.9154 10.9295 11.906 10.944 11.9 10.96L10.37 14.61C10.34 14.68 10.37 14.75 10.44 14.78C10.46 14.79 10.47 14.79 10.49 14.79H12.17C12.27 14.79 12.37 14.85 12.41 14.95L13.15 16.59C13.22 16.74 13.14 16.92 12.99 16.99C12.93 16.99 12.89 17 12.85 17H6.73C6.58 17 6.45 16.87 6.45 16.72C6.45 16.68 6.46 16.65 6.47 16.61L10.37 7.33C10.45 7.13 10.65 7 10.86 7H13.11C13.33 7 13.52 7.13 13.6 7.33L17.52 16.61C17.59 16.75 17.53 16.92 17.38 16.98Z" fill="#59168B"/>
</svg>
