<svg width="24" height="24" viewBox="0 0 24 24" fill="none" xmlns="http://www.w3.org/2000/svg">
<path fill-rule="evenodd" clip-rule="evenodd" d="M16.023 4.50305C17.853 4.37705 19.267 5.44505 20.208 6.67705C21.156 7.92005 21.809 9.54305 22.168 11.139C22.525 12.735 22.621 14.45 22.324 15.912C22.039 17.316 21.278 18.922 19.557 19.437C17.937 19.921 16.517 19.217 15.505 18.365C14.489 17.51 13.629 16.312 12.953 15.189C12.6366 14.6615 12.3397 14.1225 12.063 13.573C11.7866 14.1221 11.4901 14.6608 11.174 15.188C10.498 16.312 9.63801 17.51 8.62201 18.365C7.60901 19.217 6.19001 19.921 4.57001 19.437C2.84901 18.922 2.08801 17.317 1.80301 15.912C1.50701 14.45 1.60301 12.735 1.96001 11.139C2.31801 9.54305 2.97101 7.91905 3.92001 6.67705C4.86001 5.44505 6.27401 4.37705 8.10401 4.50305C9.82001 4.62305 11.067 5.78605 11.844 6.77205L12.064 7.06105L12.283 6.77105C13.06 5.78605 14.307 4.62205 16.023 4.50305ZM7.89601 7.49605C7.47601 7.46705 6.92601 7.68205 6.30401 8.49805C5.69001 9.30305 5.18001 10.491 4.88701 11.796C4.59401 13.101 4.55201 14.375 4.74301 15.316C4.90801 16.126 5.17301 16.417 5.33501 16.519L5.40301 16.553L5.43001 16.563C5.66201 16.633 6.04401 16.613 6.69001 16.069C7.33501 15.527 7.99301 14.656 8.60401 13.642C8.87601 13.189 9.12901 12.725 9.35601 12.279L9.61601 11.754L9.84901 11.257L10.055 10.799L10.23 10.392L10.373 10.046C10.1793 9.65755 9.95771 9.28357 9.71001 8.92705C9.06601 8.01105 8.42001 7.53305 7.89601 7.49705V7.49605ZM16.231 7.49605C15.707 7.53305 15.061 8.01105 14.417 8.92705C14.1693 9.28357 13.9477 9.65755 13.754 10.046L13.981 10.589L14.171 11.023L14.278 11.257L14.512 11.754L14.772 12.279C14.999 12.725 15.251 13.189 15.523 13.642C16.134 14.656 16.793 15.527 17.436 16.069C18.037 16.575 18.409 16.627 18.646 16.576L18.698 16.563C18.828 16.523 19.181 16.314 19.384 15.315C19.574 14.375 19.533 13.101 19.24 11.795C18.948 10.491 18.438 9.30305 17.823 8.49805C17.2 7.68205 16.651 7.46805 16.231 7.49605Z" fill="#59168B"/>
</svg>
