<svg width="24" height="24" viewBox="0 0 24 24" fill="none" xmlns="http://www.w3.org/2000/svg">
<path d="M11.292 3.814L13.31 9.521L13.706 10.637L13.713 5.827L13.723 1.009H17.993L18 11.871C18.003 17.851 17.997 22.761 17.985 22.771C17.973 22.781 17.776 22.771 17.549 22.744C16.4392 22.6119 15.3252 22.5179 14.209 22.462C13.9968 22.4538 13.7847 22.4412 13.573 22.424C13.57 22.421 13.3 21.662 12.797 20.24V20.236L10.653 14.175L10.313 13.221L10.305 17.807C10.299 22.172 10.295 22.417 10.248 22.417C10.085 22.417 8.678 22.507 8.208 22.553C7.9 22.58 7.282 22.643 6.838 22.698C6.392 22.749 6.022 22.783 6.015 22.776C6.008 22.769 6 17.867 6 11.883V1.002H6.005V1H10.293L10.321 1.08C10.328 1.096 10.386 1.256 10.478 1.517L11.119 3.295L11.292 3.791V3.814Z" fill="#59168B"/>
</svg>
