<svg width="24" height="24" viewBox="0 0 24 24" fill="none" xmlns="http://www.w3.org/2000/svg">
<path fill-rule="evenodd" clip-rule="evenodd" d="M21.334 5.119C18.036 3.659 14.814 3.195 12 3.217C9.18499 3.195 5.96199 3.659 2.66499 5.119C2.27199 4.395 2.11099 3.957 2.11099 3.957C5.71599 2.508 9.09199 2.012 12 2C14.908 2.012 18.284 2.508 21.889 3.957C21.889 3.957 21.775 4.313 21.334 5.119ZM14.769 6.197L12 22L9.20999 6.194C6.59099 6.196 5.75999 6.49 5.63999 7.689C5.63999 7.689 3.86999 7.019 2.97799 5.659C6.45999 4.019 9.95799 3.946 9.95799 3.946L12 6.468L14.039 3.946C14.039 3.946 17.537 4.02 21.019 5.659C20.127 7.019 18.358 7.689 18.358 7.689C18.238 6.49 17.406 6.197 14.768 6.197" fill="#59168B"/>
</svg>
